<svg height="512" viewBox="0 0 58 58" width="512" xmlns="http://www.w3.org/2000/svg"><g id="Page-1" fill="none" fill-rule="evenodd"><g id="018---City-Smog" fill-rule="nonzero" transform="translate(0 -1)"><path id="Shape" d="m52 28c-.5522847 0-1-.4477153-1-1v-4c0-.5522847.4477153-1 1-1s1 .4477153 1 1v4c0 .5522847-.4477153 1-1 1z" fill="#95a5a5"/><path id="Shape" d="m51 27h2c.5522847 0 1 .4477153 1 1v8h-4v-8c0-.5522847.4477153-1 1-1z" fill="#14a085"/><path id="Shape" d="m6 28c-.55228475 0-1-.4477153-1-1v-4c0-.5522847.44771525-1 1-1s1 .4477153 1 1v4c0 .5522847-.44771525 1-1 1z" fill="#95a5a5"/><path id="Shape" d="m5 27h2c.55228475 0 1 .4477153 1 1v8h-4v-8c0-.5522847.44771525-1 1-1z" fill="#7d6599"/><path id="Shape" d="m34 59h-10l-7-24v-14c.0032948-1.1032019.8967981-1.9967052 2-2h20c1.1032019.0032948 1.9967052.8967981 2 2v14z" fill="#2980ba"/><path id="Shape" d="m29 28c-.5522847 0-1-.4477153-1-1v-4c0-.5522847.4477153-1 1-1s1 .4477153 1 1v4c0 .5522847-.4477153 1-1 1z" fill="#9fc9d3"/><path id="Shape" d="m25 28c-.5522847 0-1-.4477153-1-1v-4c0-.5522847.4477153-1 1-1s1 .4477153 1 1v4c0 .5522847-.4477153 1-1 1z" fill="#9fc9d3"/><path id="Shape" d="m21 28c-.5522847 0-1-.4477153-1-1v-4c0-.5522847.4477153-1 1-1s1 .4477153 1 1v4c0 .5522847-.4477153 1-1 1z" fill="#9fc9d3"/><path id="Shape" d="m33 28c-.5522847 0-1-.4477153-1-1v-4c0-.5522847.4477153-1 1-1s1 .4477153 1 1v4c0 .5522847-.4477153 1-1 1z" fill="#9fc9d3"/><path id="Shape" d="m37 28c-.5522847 0-1-.4477153-1-1v-4c0-.5522847.4477153-1 1-1s1 .4477153 1 1v4c0 .5522847-.4477153 1-1 1z" fill="#9fc9d3"/><path id="Shape" d="m29 36c-.5522847 0-1-.4477153-1-1v-4c0-.5522847.4477153-1 1-1s1 .4477153 1 1v4c0 .5522847-.4477153 1-1 1z" fill="#9fc9d3"/><path id="Shape" d="m29 44c-.5522847 0-1-.4477153-1-1v-4c0-.5522847.4477153-1 1-1s1 .4477153 1 1v4c0 .5522847-.4477153 1-1 1z" fill="#9fc9d3"/><path id="Shape" d="m29 52c-.5522847 0-1-.4477153-1-1v-4c0-.5522847.4477153-1 1-1s1 .4477153 1 1v4c0 .5522847-.4477153 1-1 1z" fill="#9fc9d3"/><path id="Shape" d="m30 55v4h-2v-4c0-.5522847.4477153-1 1-1s1 .4477153 1 1z" fill="#9fc9d3"/><path id="Shape" d="m25 33c-.5522847 0-1-.4477153-1-1v-1c0-.5522847.4477153-1 1-1s1 .4477153 1 1v1c0 .5522847-.4477153 1-1 1z" fill="#9fc9d3"/><path id="Shape" d="m21 36c-.5522847 0-1-.4477153-1-1v-4c0-.5522847.4477153-1 1-1s1 .4477153 1 1v4c0 .5522847-.4477153 1-1 1z" fill="#9fc9d3"/><path id="Shape" d="m33 33c-.5522847 0-1-.4477153-1-1v-1c0-.5522847.4477153-1 1-1s1 .4477153 1 1v1c0 .5522847-.4477153 1-1 1z" fill="#9fc9d3"/><path id="Shape" d="m37 36c-.5522847 0-1-.4477153-1-1v-4c0-.5522847.4477153-1 1-1s1 .4477153 1 1v4c0 .5522847-.4477153 1-1 1z" fill="#9fc9d3"/><path id="Shape" d="m24 37v22h-23c-.55228475 0-1-.4477153-1-1v-21c.0032948-1.1032019.89679813-1.9967052 2-2h20c1.1032019.0032948 1.9967052.8967981 2 2z" fill="#5d4c72"/><path id="Shape" d="m58 37v21c0 .5522847-.4477153 1-1 1h-23v-22c.0032948-1.1032019.8967981-1.9967052 2-2h20c1.1032019.0032948 1.9967052.8967981 2 2z" fill="#26b99a"/><path id="Shape" d="m56 9c.007614-1.44413602-.76784-2.77902734-2.0261038-3.48780016-1.2582639-.70877282-2.8017807-.68014443-4.0328962.07480016.0339002-.19397362.053619-.39015988.059-.587.0036225-1.88234308-1.3075363-3.51171499-3.1470774-3.91086069s-3.7080829.54029115-4.4849226 2.25486069c-1.1899448-.63227906-2.6573049-.37563521-3.562.623-.4021529-1.11168392-1.4232375-1.88068395-2.6027492-1.96018455-1.1795117-.07950061-2.2945551.54552164-2.8422508 1.59318455-.8652361-1.60259643-2.5397508-2.60151173-4.361-2.60151173s-3.4957639.9989153-4.361 2.60151173c-.5475194-1.04772089-1.6624249-1.67291318-2.8419209-1.59363025-1.179496.07928292-2.2007021.84805957-2.6030791 1.95963025-.9046951-.99863521-2.3720552-1.25527906-3.562-.623-.7769157-1.71474292-2.645737-2.65417527-4.4854131-2.25475923-1.83967604.39941605-3.15068323 2.02922784-3.1465869 3.91175923.00538095.19684012.02509985.39302638.059.587-1.33993987-.81321822-3.03199669-.7661217-4.32462699.12037119s-1.94611078 2.44797859-1.67019175 3.99090809c.27591904 1.54292952 1.43006734 2.78116052 2.94981874 3.16472072 0 .046-.014.09-.014.137.00145919 1.3226747.86898286 2.4883252 2.13555885 2.8694494 1.266576.3811243 2.63330598-.112219 3.36444115-1.2144494.6218124.9435072 1.7224047 1.4558725 2.8447006 1.3243105 1.1222958-.131562 2.0745532-.8845743 2.4612994-1.9463105.7043405.7689096 1.7593517 1.1137363 2.7818474.9092371 1.0224958-.2044991 1.8637266-.9285742 2.2181526-1.9092371.5630582.6162018 1.3592909.9672187 2.194.9672187s1.6309418-.3510169 2.194-.9672187c.4300618 1.1794025 1.5506358 1.9649225 2.806 1.967h2c1.2553642-.0020775 2.3759382-.7875975 2.806-1.967.5630582.6162018 1.3592909.9672187 2.194.9672187s1.6309418-.3510169 2.194-.9672187c.354426.9806629 1.1956568 1.704738 2.2181526 1.9092371 1.0224957.2044992 2.0775069-.1403275 2.7818474-.9092371.3867462 1.0617362 1.3390036 1.8147485 2.4612994 1.9463105 1.1222959.131562 2.2228882-.3808033 2.8447006-1.3243105.7311352 1.1022304 2.0978651 1.5955737 3.3644411 1.2144494 1.266576-.3811242 2.1340997-1.5467747 2.1355589-2.8694494 0-.047-.012-.091-.014-.137 1.7698801-.446862 3.0109955-2.0375816 3.014-3.863z" fill="#95a5a5"/><g fill="#9fc9d3"><path id="Shape" d="m12 44c-.5522847 0-1-.4477153-1-1v-4c0-.5522847.4477153-1 1-1s1 .4477153 1 1v4c0 .5522847-.4477153 1-1 1z"/><path id="Shape" d="m8 44c-.55228475 0-1-.4477153-1-1v-4c0-.5522847.44771525-1 1-1s1 .4477153 1 1v4c0 .5522847-.44771525 1-1 1z"/><path id="Shape" d="m4 44c-.55228475 0-1-.4477153-1-1v-4c0-.5522847.44771525-1 1-1s1 .4477153 1 1v4c0 .5522847-.44771525 1-1 1z"/><path id="Shape" d="m20 44c-.5522847 0-1-.4477153-1-1v-4c0-.5522847.4477153-1 1-1s1 .4477153 1 1v4c0 .5522847-.4477153 1-1 1z"/><path id="Shape" d="m16 44c-.5522847 0-1-.4477153-1-1v-4c0-.5522847.4477153-1 1-1s1 .4477153 1 1v4c0 .5522847-.4477153 1-1 1z"/><path id="Shape" d="m12 52c-.5522847 0-1-.4477153-1-1v-4c0-.5522847.4477153-1 1-1s1 .4477153 1 1v4c0 .5522847-.4477153 1-1 1z"/><path id="Shape" d="m8 52c-.55228475 0-1-.4477153-1-1v-4c0-.5522847.44771525-1 1-1s1 .4477153 1 1v4c0 .5522847-.44771525 1-1 1z"/><path id="Shape" d="m4 52c-.55228475 0-1-.4477153-1-1v-4c0-.5522847.44771525-1 1-1s1 .4477153 1 1v4c0 .5522847-.44771525 1-1 1z"/><path id="Shape" d="m20 52c-.5522847 0-1-.4477153-1-1v-4c0-.5522847.4477153-1 1-1s1 .4477153 1 1v4c0 .5522847-.4477153 1-1 1z"/><path id="Shape" d="m16 52c-.5522847 0-1-.4477153-1-1v-4c0-.5522847.4477153-1 1-1s1 .4477153 1 1v4c0 .5522847-.4477153 1-1 1z"/><path id="Shape" d="m13 55v4h-2v-4c0-.5522847.4477153-1 1-1s1 .4477153 1 1z"/><path id="Shape" d="m9 55v4h-2v-4c0-.5522847.44771525-1 1-1s1 .4477153 1 1z"/><path id="Shape" d="m5 55v4h-2v-4c0-.5522847.44771525-1 1-1s1 .4477153 1 1z"/><path id="Shape" d="m21 55v4h-2v-4c0-.5522847.4477153-1 1-1s1 .4477153 1 1z"/><path id="Shape" d="m17 55v4h-2v-4c0-.5522847.4477153-1 1-1s1 .4477153 1 1z"/><path id="Shape" d="m46 44c-.5522847 0-1-.4477153-1-1v-4c0-.5522847.4477153-1 1-1s1 .4477153 1 1v4c0 .5522847-.4477153 1-1 1z"/><path id="Shape" d="m42 44c-.5522847 0-1-.4477153-1-1v-4c0-.5522847.4477153-1 1-1s1 .4477153 1 1v4c0 .5522847-.4477153 1-1 1z"/><path id="Shape" d="m38 44c-.5522847 0-1-.4477153-1-1v-4c0-.5522847.4477153-1 1-1s1 .4477153 1 1v4c0 .5522847-.4477153 1-1 1z"/><path id="Shape" d="m54 44c-.5522847 0-1-.4477153-1-1v-4c0-.5522847.4477153-1 1-1s1 .4477153 1 1v4c0 .5522847-.4477153 1-1 1z"/><path id="Shape" d="m50 44c-.5522847 0-1-.4477153-1-1v-4c0-.5522847.4477153-1 1-1s1 .4477153 1 1v4c0 .5522847-.4477153 1-1 1z"/><path id="Shape" d="m46 52c-.5522847 0-1-.4477153-1-1v-4c0-.5522847.4477153-1 1-1s1 .4477153 1 1v4c0 .5522847-.4477153 1-1 1z"/><path id="Shape" d="m42 52c-.5522847 0-1-.4477153-1-1v-4c0-.5522847.4477153-1 1-1s1 .4477153 1 1v4c0 .5522847-.4477153 1-1 1z"/><path id="Shape" d="m38 52c-.5522847 0-1-.4477153-1-1v-4c0-.5522847.4477153-1 1-1s1 .4477153 1 1v4c0 .5522847-.4477153 1-1 1z"/><path id="Shape" d="m54 52c-.5522847 0-1-.4477153-1-1v-4c0-.5522847.4477153-1 1-1s1 .4477153 1 1v4c0 .5522847-.4477153 1-1 1z"/><path id="Shape" d="m50 52c-.5522847 0-1-.4477153-1-1v-4c0-.5522847.4477153-1 1-1s1 .4477153 1 1v4c0 .5522847-.4477153 1-1 1z"/><path id="Shape" d="m47 55v4h-2v-4c0-.5522847.4477153-1 1-1s1 .4477153 1 1z"/><path id="Shape" d="m43 55v4h-2v-4c0-.5522847.4477153-1 1-1s1 .4477153 1 1z"/><path id="Shape" d="m39 55v4h-2v-4c0-.5522847.4477153-1 1-1s1 .4477153 1 1z"/><path id="Shape" d="m55 55v4h-2v-4c0-.5522847.4477153-1 1-1s1 .4477153 1 1z"/><path id="Shape" d="m51 55v4h-2v-4c0-.5522847.4477153-1 1-1s1 .4477153 1 1z"/></g></g></g></svg>